<svg id="Layer_1" data-name="Layer 1" xmlns="http://www.w3.org/2000/svg" xmlns:xlink="http://www.w3.org/1999/xlink" viewBox="0 0 298.9 344.92"><defs><style>.cls-1,.cls-16,.cls-23,.cls-27,.cls-4{fill:none;}.cls-2{clip-path:url(#clip-path);}.cls-3{fill:#d7f4fa;}.cls-3,.cls-5,.cls-6{fill-opacity:0.5;}.cls-10,.cls-11,.cls-13,.cls-17,.cls-21,.cls-3,.cls-5,.cls-7,.cls-8,.cls-9{fill-rule:evenodd;}.cls-4{stroke:#f9feff;}.cls-16,.cls-23,.cls-27,.cls-4{stroke-miterlimit:10;}.cls-23,.cls-4{stroke-width:0.48px;}.cls-25,.cls-5,.cls-6,.cls-8{fill:#2d8495;}.cls-7{fill:#340044;}.cls-9{fill:#6fc1d1;}.cls-10{fill:#fecdbd;}.cls-11{fill:#c2b9c7;}.cls-12,.cls-17{fill:#c48b66;}.cls-13{fill:#f6b385;}.cls-14{clip-path:url(#clip-path-3);}.cls-15{fill:#ab7855;}.cls-16{stroke:#c48b66;stroke-width:0.24px;}.cls-18{clip-path:url(#clip-path-4);}.cls-19{fill:#ea908a;}.cls-20{clip-path:url(#clip-path-5);}.cls-21{fill:#f4afa4;}.cls-22{fill:#373435;}.cls-23{stroke:#56c7de;stroke-linecap:round;}.cls-24{fill:#412213;}.cls-26{fill:#fefefe;}.cls-27{stroke:#fefefe;stroke-width:0.22px;}</style><clipPath id="clip-path"><path class="cls-1" d="M78.31,296.51s93.77,11.25,112.52,30,108.78,35.63,91-15.95-68.45-118.14-22.5-128.46S348.37-22.31,160.83,12.39-7.22,115,11.35,126.61s104.47,43.31,37.89,71.44S24.86,301.2,78.31,296.51Z"/></clipPath><clipPath id="clip-path-3"><polygon class="cls-1" points="133.35 225.15 196.71 225.15 221.97 239.73 152.43 239.73 133.35 225.15"/></clipPath><clipPath id="clip-path-4"><path class="cls-1" d="M172,120c11.76,2,18.33,16.59,14.66,32.49s-16.17,27.14-27.94,25.1-18.33-16.59-14.66-32.5S160.25,117.93,172,120Z"/></clipPath><clipPath id="clip-path-5"><path class="cls-1" d="M91.44,240l-4.73,24.7s-.21.94,1.37,1.57,38.64,24,38.64,24,5.1,3.8,6.88,7.36,2.13,4.27,4.62,4.39,11.28.12,11.28.12a4.72,4.72,0,0,0-2.05-2.36c-1.38-.63-7.36-3.7-7.63-6.33,0,0,3.44,2.72,5.13,2.67s1.47-2.32-1.25-5a47.4,47.4,0,0,0-7.8-5.84c-.94-.49-2.59-1-4.06-1.74s-27.77-25.12-27.77-25.12l2.87-12.82L91.44,240Z"/></clipPath></defs><g id="Layer_1-2" data-name="Layer_1"><g id="_2310761448832" data-name=" 2310761448832"><g class="cls-2"><polygon class="cls-3" points="0 8.24 298.89 8.24 298.89 344.92 0 344.92 0 8.24"/></g><g class="cls-2"><path id="_1" data-name=" 1" class="cls-4" d="M13.55,127.43S83.1,63.36,102.14,103.3s83.55,19.55,83.55,19.55S229.6,109.54,228,158.63s-6.21,59.49-6.21,59.49-8.94,41.19,33,54.91-50.94,58.32-50.94,58.32L73.35,317.2S44.6,251.89,111,247.31,129.7,187,129.7,187"/><path class="cls-4" d="M126.44.05c4.31,18.57,18.35,57.18,75.54,53.66s85.42,44.47,95.3,88.94"/><path class="cls-5" d="M71.33,267.48c-.34.25,0,.52-.4.66a.42.42,0,0,1-.46-.68c.37-.38.19.4,1.24-.73a5.42,5.42,0,0,0-1-1.1c-.61-.49-.9-.22-1.33.15A3.56,3.56,0,0,1,66.84,267c-2.33,0-4.23-2.35-5-3.63l-.37-.62c-.46-.71-1-2.35-1.63-2.23-1.58.28-5.51,3.3-5.69,5.71.9.54,1.63.92,2.47,1.51s1.49,1.07,2.19,1.64c1,.83,2.07,1.73,3,2.61a12.9,12.9,0,0,0,1,.87,3.4,3.4,0,0,1,1.64-.71,4.29,4.29,0,0,1,2.17.35c2.36.92,3.69,2.54,6.07,2.07a4.69,4.69,0,0,0,1.62-.68,4.86,4.86,0,0,0,.74-.53c.36-.3.23-.57.12-.89a12.39,12.39,0,0,0-.76-1.55c-1.13.74-.49.38-.77.83a.41.41,0,0,1-.74-.34c.11-.39.38-.27.67-.26a4.43,4.43,0,0,0,.66-.64,6.19,6.19,0,0,1-.49-.79,5.26,5.26,0,0,0-.49-.77,6,6,0,0,0-.68.44c-.32.21,0,.44-.38.62a.41.41,0,0,1-.59-.42c.08-.45.35-.32.68-.33l.74-.68A10.51,10.51,0,0,0,72,267.06l-.65.42Z"/><path class="cls-5" d="M63.17,273.2a12.36,12.36,0,0,0,1,1l1,1c2.23,2.17,3.58,3.87,6.51,5.52a31.39,31.39,0,0,0,6.44,2.62,42.2,42.2,0,0,0,6.53,1.4c1.46-3.28-1.85-4.28-4.57-5.51a7.37,7.37,0,0,1-3-2.41,11.56,11.56,0,0,1-1.74-3l-.2.11A6,6,0,0,1,72.74,275c-2.36.55-4.27-1.46-6.54-2.22-1-.34-2.37-.37-3,.39Z"/><path class="cls-5" d="M51.61,270.53l8.82,5.54.86-1.6c.65.47,4.18,4.58,6.57,6.26a30.66,30.66,0,0,0,10,4.36,52.15,52.15,0,0,0,7,1.41l.2-.86c-.72-.16-1.62-.24-2.39-.38s-1.65-.33-2.49-.53c-5-1.18-9.66-3.05-13.17-6.56-3.13-3.14-9.32-9.48-13.3-11.21l-2.06,3.57Z"/><path class="cls-5" d="M68.56,121a1.64,1.64,0,0,0,.15-.54c.05-.34,0-.31-.18-.51a48,48,0,0,1-3.16-4c-.65-.94-1.11-1.75-1.7-2.67a3.75,3.75,0,0,1-.5-1,19.88,19.88,0,0,0-.48-2.53A12.6,12.6,0,0,1,64,99.46a8.68,8.68,0,0,1,.85-1.23l.64-.77a14.53,14.53,0,0,1,1.9-1.69,13,13,0,0,1,14.19-.66l1.06.7a10,10,0,0,1,1,.79l.71.7.34.38a12.82,12.82,0,0,1,3,9.82,8.46,8.46,0,0,0-.1,1.26c0,1.91.12,1.35-.67,3.33a43.14,43.14,0,0,1-3.36,6.69c-.14.23,0,.62.13.83a3.23,3.23,0,0,0,1.52-.87c.2-.26,1.1-2.13,1.25-2.48a18.58,18.58,0,0,0,1.51-4.39c.07-1.79.41-3.42.62-5.15a9.05,9.05,0,0,0,0-2.8,17.83,17.83,0,0,0-.58-2.67A14.21,14.21,0,0,0,85.27,96a13.33,13.33,0,0,0-1.52-1.57,4.7,4.7,0,0,1-.43-.35,7.93,7.93,0,0,0-.86-.63,12.33,12.33,0,0,0-3.56-1.66c-4.79-1.4-10.89,0-14.16,3.75a11.41,11.41,0,0,0-1.19,1.49,15.47,15.47,0,0,0-2.43,9.25,8.57,8.57,0,0,0,.49,2.73A45.18,45.18,0,0,1,63.12,114c.27,1.29,2.81,4.79,3.61,5.81.11.15.23.3.35.44a1.39,1.39,0,0,0,.39.38,1.16,1.16,0,0,0,1.09.38Z"/><path class="cls-5" d="M63.51,109.45a17.84,17.84,0,0,0,1.25,1.78L71.14,120c1.13,1.54.9,1.59,2.5.42.21-.16.75-.47.57-.86,0-.08-.26-.36-.34-.46L66.54,109c-1.21-1.66-.86-1.63-2.47-.46-.29.21-.67.39-.56.88Z"/><path class="cls-5" d="M84.43,106.13c-.09.06,0,0-.09.09L78.69,117.8l-.47,1c-.2.41-.42.63,0,1a7,7,0,0,0,1,.49c.27.13.72.45,1.09.27s.86-1.49,1-1.86l4.76-9.75c.17-.34.31-.63.47-1s.36-.79,0-1.06l-1-.47c-.24-.12-.79-.47-1.11-.26Z"/><path class="cls-5" d="M63.17,109.54c-.29.17-.09.77,0,1.12s.13.82.19,1.23a1.88,1.88,0,0,0,.38,1,47,47,0,0,0,5.58,7.63c.3.34.32.29.77.49l.89.37a1.27,1.27,0,0,0,.93.18c0-.27-.35-.66-.49-.85L64.31,111c-.18-.25-.92-1.37-1.14-1.42Z"/><path class="cls-5" d="M87.17,107.44c-.23,0-.24.15-.32.33l-6.14,12.59c-.07.14-.21.4,0,.42s1.29-.72,1.69-1a1.45,1.45,0,0,0,.62-.66c.16-.28.31-.52.48-.81.3-.53.6-1,.9-1.59a37.26,37.26,0,0,0,1.66-3.35l1.07-2.66a1.82,1.82,0,0,0,.21-1c0-.4,0-.8,0-1.2s0-.91-.17-1.11Z"/><path class="cls-5" d="M74.32,119.42s0,0,.06-.1c.19-.46-.31-1.4-.58-1.78l-3.22-4.43c-.72-1-1.43-2-2.14-2.94-.35-.49-.71-1-1.07-1.47-.21-.29-1-1.15-1.44-1-.19,0-.07.1.09.33l7.77,10.67C73.94,118.88,74.21,119.21,74.32,119.42Z"/><path class="cls-5" d="M77.8,119.11l1.61-3.24c.54-1.1,1.06-2.19,1.6-3.28s1-2.16,1.59-3.25c.26-.53.52-1.09.79-1.63a14,14,0,0,0,.75-1.62c-.51-.16-1.12.89-1.28,1.18-.29.55-.54,1.09-.81,1.65-.54,1.09-1.06,2.18-1.61,3.29-.79,1.62-1.6,3.35-2.41,5a2.48,2.48,0,0,0-.23,2Z"/><path class="cls-6" d="M154.52,33.7a2.53,2.53,0,0,1-.79.69,2.56,2.56,0,0,1-3.48-1,.47.47,0,0,1-.05-.1,4,4,0,0,0-.28.55,3.79,3.79,0,0,0-.24,2.35,2.05,2.05,0,0,0,1.15,1.47c1.18.51,2.7-.39,3.39-2A3.91,3.91,0,0,0,154.52,33.7Z"/><path class="cls-6" d="M152,42.76a50.54,50.54,0,0,0,3.23-5.68c.65-1,1.77-.89,3.35-1.25.9-.2,1.34-.69,1-1.37-.28-.52-1.19-1.14-1.39-2-.33-1.36.22-2.11,1.79-3.09s11.61-6.91,12.43-7.27.86,0,.86,0a6.8,6.8,0,0,1,.83-.53l0,.08-.07,0-.13.3.17.31a.55.55,0,0,0,.58,0c.36-.2.34-.46.34-.46l-.16-.31-.32-.06-.07,0,0-.09c.29-.15.59-.31.91-.46l.07.14-.06,0-.13.3.16.32a.55.55,0,0,0,.58,0c.37-.2.34-.47.34-.47l-.16-.31-.32-.06-.07,0-.07-.13.92-.44.08.16-.06,0-.13.3.16.31a.53.53,0,0,0,.58,0c.37-.19.34-.46.34-.46l-.16-.31-.32-.06-.07,0-.07-.13,1.12-.51a1.65,1.65,0,0,1,.06-1.19.9.9,0,0,1-.57-.4,1,1,0,0,1-.05-.7,1.63,1.63,0,0,1-1.05-.57l-1,.7-.07-.11.07,0,.12-.3-.18-.3a.54.54,0,0,0-.58.05c-.36.21-.32.48-.32.48l.18.3.32,0,.06,0,.08.12-.85.56-.06-.1.06,0,.12-.31-.18-.3a.53.53,0,0,0-.58.06c-.36.21-.32.47-.32.47l.18.31.32,0,.06,0,.07.12L173,19l0-.07.06,0,.12-.31-.18-.3a.67.67,0,0,0-.9.53l.18.3.32.05.07,0,0,.06a6,6,0,0,1-.88.42s.27.24-.45.74-12.68,6.83-12.68,6.83a5.4,5.4,0,0,0-1.91-2.55c-1.55-1.2-2.8-1.37-3.93-.2s-2,2.75-3.16,2.79-3.89-.56-6.53-.2c-1.82.25-9.07,3.36-3.92,12.53s11.63,4.65,12.74,3.18Zm-4.06-4.38h0l-1.05-.86a1,1,0,0,1-1.06-.5l-.95-1.69a1,1,0,0,1,.12-1.16L144.85,33l.59-.33,3.05,5.43-.59.33Zm2.8-.39h0a2.17,2.17,0,0,1-1.06-1,3.18,3.18,0,0,1-.29-.73,4.21,4.21,0,0,1,.26-2.57,4.88,4.88,0,0,1,.43-.78,2.56,2.56,0,1,1,4.74.33,4.07,4.07,0,0,1-.25,2.54c-.76,1.78-2.48,2.76-3.83,2.18Z"/><path class="cls-5" d="M273.66,88.76c.1.15.26.31.38.48a5,5,0,0,1,.34.51,9.74,9.74,0,0,1,1,4.65c0,.19-.06.75,0,.88l3.95,13.83,15.76-4.49-4-13.91c-.05-.14-2-2.62-2-5.19,0-.65.09-.87.09-1.18l-4.61.36a4.74,4.74,0,0,1-.57,2.17,3.41,3.41,0,0,1-2.28,1.57,3.65,3.65,0,0,1-3.3-.87,10.34,10.34,0,0,1-.8-.88l-4,2.07Z"/><path class="cls-5" d="M271.33,95.33c.34.29.67.58,1,.88l1,.85.69-.77.66-.76c.44-.52.44-.39.46-.89a8.56,8.56,0,0,0,0-1.13A10.8,10.8,0,0,0,274.6,91a5,5,0,0,0-1.19-2c-.12.09-1.89,2.15-2,2.3s-1.89,2.13-2,2.3l1.93,1.76Z"/><path class="cls-5" d="M295.37,86.16,291,84.82c-.24-.08-1.31-.43-1.47-.44a5.52,5.52,0,0,0,.24,3.05,11.24,11.24,0,0,0,1.49,2.91,5.93,5.93,0,0,0,1.31.45l1.32.4,1.48-5Z"/><polygon class="cls-5" points="279.69 110.31 295.43 105.83 295.17 104.9 279.41 109.39 279.69 110.31"/><path class="cls-5" d="M281.64,85.94a6.61,6.61,0,0,1-2.82.35,2.38,2.38,0,0,0,1.16.91A2.58,2.58,0,0,0,283.49,85c-.28.16-.52.36-.83.53a5.81,5.81,0,0,1-1,.46Z"/><path class="cls-5" d="M277.93,86.54a4,4,0,0,0,1.61,1.4,3.4,3.4,0,0,0,4.18-1.15,4,4,0,0,0,.58-2.08l-.52,0a2.87,2.87,0,0,1-2,2.81,2.94,2.94,0,0,1-1.92-.11,2.73,2.73,0,0,1-1.35-1.17l-.53.26Z"/><path class="cls-5" d="M268.7,94.38c.17.14.32.3.49.45l.5.43c.74.68,1.75,1.49,2.46,2.15a3.45,3.45,0,0,0,.49.4,2.18,2.18,0,0,0,.45-.52l-1.94-1.74c-.34-.29-.64-.56-1-.88l-1-.85a2.59,2.59,0,0,0-.49.56Z"/><path class="cls-5" d="M296.39,86.49a2.23,2.23,0,0,0-.72-.22,4.67,4.67,0,0,0-.2.63c-.19.64-1.13,4-1.28,4.38a2.55,2.55,0,0,0,.66.2l1.54-5Z"/><path class="cls-5" d="M230,179.27a8.13,8.13,0,0,0,0-1.94c0-.2,0-.2.13-.36a8,8,0,0,0,1.16-2.39,9,9,0,0,0,.28-1.69,1.62,1.62,0,0,0,.86-.42,8.49,8.49,0,0,1,.09,1.78,9.13,9.13,0,0,1-1.17,4l-.38.62c-.08.11-.08.08-.18.12s-.1,0-.18.08l-.2.07-.41.13Zm-3.48,3.06a1.27,1.27,0,0,0,.34-.64,7.41,7.41,0,0,0,.8-.32l.39-.21a8.68,8.68,0,0,0,1.11-.75,5.81,5.81,0,0,0,.67-.64l.39.07a9.11,9.11,0,0,1-2.17,1.78,7.77,7.77,0,0,1-1,.5l-.39.17-.14,0Zm-.37-5.87c-.05-.08-.08-.16-.13-.25a12.6,12.6,0,0,0-1.76-2.4c.38-1,.81-2.06,1.17-3.11l.19-.56,1.07-.1c.26,0,2.6-.28,2.68-.23a7,7,0,0,1,.9,1.23l.78,1.3c.19.33.21.29.16.47a27.4,27.4,0,0,1-1.07,3c-.12.27-.23.53-.35.79s-.08.29-.51.38c-.86.2-1.79.3-2.69.42l-.44-1Zm-.58-6.76c-.39-.29-.73-.61-1.13-.9s-.8-.56-1.21-.84l-.32-.22c-.18-.11-.25-.06-.2-.25s.12-.52.17-.79l.28-1.6a16.38,16.38,0,0,1,2.11-.19,8.12,8.12,0,0,1,3.88,1.78c.22.17.34.23.34.38a10.57,10.57,0,0,1,0,1.12c0,.39-.13.84-.22,1.22a6.76,6.76,0,0,0-1.95-.07,6.07,6.07,0,0,0-.87.14l-.84.22Zm.86,12.1a3.31,3.31,0,0,1-.74.52l-.77.42a7.72,7.72,0,0,1-1.91.13,8.74,8.74,0,0,1-2.17-.37,10.76,10.76,0,0,1-2.1-.92c.21,0,.22.07.45-.06a7.55,7.55,0,0,0,1-.9,6.9,6.9,0,0,0,4.08.23c.47-.13.18-.11.64.18a7.46,7.46,0,0,0,1.55.77Zm-.11-4.11a15.21,15.21,0,0,1-1.65,2.45l-.1.15c-.11.15-.13.12-.45.16a11.24,11.24,0,0,1-3.61-.13.72.72,0,0,1-.6-.34,6.28,6.28,0,0,1-.43-.49,19,19,0,0,1-1.43-2.14c.19-.52,1.6-3.1,1.86-3.5a8.45,8.45,0,0,0,1,.07c.4,0,2.75.08,3,.12a1.49,1.49,0,0,0,.14.24l1.66,2.52c.2.31.41.61.62.89Zm-8.61-.55c-.55-.1-1.13-.25-1.68-.38s-.38,0-.59-.4l-.26-.62a9.94,9.94,0,0,1-.33-1.33,11.17,11.17,0,0,1-.13-1.43,2.41,2.41,0,0,1,0-.76,8,8,0,0,1,1.16-2.18c.25-.31.15-.25.66-.19s2.17.23,2.36.28l.73,3.39s-.49.67-.56.78a12.26,12.26,0,0,0-1,1.79c-.13.3-.27.8-.41,1Zm-1.46-7.7a3,3,0,0,1,.2-1.19,1.94,1.94,0,0,1,.61-1,8.7,8.7,0,0,1,1.59-1.24l1.1-.58a6.58,6.58,0,0,1,1.18-.41,4.22,4.22,0,0,1,1.69.14,6,6,0,0,0-.35,1.33,4.87,4.87,0,0,0,0,1.14,6.27,6.27,0,0,1-.68.37l-.18.08-.34.19a11.85,11.85,0,0,0-1.41,1c-.47.36-.41.42-.7.35a8.33,8.33,0,0,0-.95-.18,10.89,10.89,0,0,0-1.74-.06Zm-.62,9c-.1-.13-.15-.27-.24-.41-.17-.3-.21-.47-.31-.65a9.74,9.74,0,0,1-.52-1.58,5.1,5.1,0,0,1-.16-.95,5.05,5.05,0,0,0,1,2.12c0,.05.06.76.11,1s.09.33.1.46Zm11.53-13.92a9.84,9.84,0,0,0-4.25-.69,9.35,9.35,0,0,0-3.11.69,3.88,3.88,0,0,0-.59.26l-.59.3c-.12.08-.25.14-.38.22a10,10,0,1,0,15.18,7.91,9.66,9.66,0,0,0-.53-2.69l-.32-.81a.78.78,0,0,0-.11-.2l-.29-.59c-.08-.12-.14-.25-.22-.38a9.84,9.84,0,0,0-4.79-4Z"/><path class="cls-5" d="M212.09,331.38a6.32,6.32,0,0,1-2.41,1.31A6.14,6.14,0,1,1,213.5,324l.19.41c.07.16.11.29.17.43l.21,0a5.14,5.14,0,0,1,.37,1.42,6.45,6.45,0,0,1,0,1.64,6.2,6.2,0,0,1-1.38,3.07c-.13-.05-.16-.13-.27-.19l-.68.69Zm-10.8-14.13-3.78,15.1.12,0,16.9,4.24.12,0,0-.14,3.76-15-17.15-4.29v0Z"/><path class="cls-5" d="M208.57,322.41a4.39,4.39,0,1,0,3.81,4.9,4.39,4.39,0,0,0-3.81-4.9Z"/><path class="cls-5" d="M218.19,320.4a7.06,7.06,0,0,1-.91-.21c-.24-.06-.2,0-.09-.5.06-.25.28-.11.51-.05a4.73,4.73,0,0,1,.63.18l-.14.58Zm-2.2-1.17a8.26,8.26,0,0,1,1.09.27,1.71,1.71,0,0,1-.15.59,6.21,6.21,0,0,1-1.07-.27l.13-.59Zm-7.1-1.59a.54.54,0,0,1,0-.27c0-.09,0-.07.18,0l1.43.36c1.19.3,1.21.18,1,.63l-2.67-.68Zm-1.62-3.21a12,12,0,0,1-.38,1.65c-.23.91-.16.74-1.08.51l-1.66-.42a5.64,5.64,0,0,1-1.54-.45,8.8,8.8,0,0,1,.37-1.62c.23-.93.13-.78,1.07-.54l1.65.42a6.35,6.35,0,0,1,1.57.45Zm5,3.16a.3.3,0,0,1,.36.24.3.3,0,0,1-.59.14A.32.32,0,0,1,212.31,317.59Zm-4-1a.32.32,0,0,1,.37.25.29.29,0,0,1-.26.35.31.31,0,0,1-.11-.6Zm1.08-1c.09-.34.31-.2.63-.12l1.63.41c.3.07.55.06.47.39-.41,1.64-.25,1.5-.93,1.33l-1.63-.41c-.65-.16-.57,0-.17-1.6Zm5.72,1.12a.25.25,0,0,1,.32.16l.11.12a.83.83,0,0,1-.07,1.34.76.76,0,0,1-.29.13c-.19,0-.15.1-.29.12s-.24-.14-.41-.29a.84.84,0,0,1,.33-1.47l.09,0,.07,0a.35.35,0,0,1,.14-.06Zm2.18.53a.3.3,0,0,1,.33.19c.07.1.15.13.22.23a.83.83,0,0,1-.18,1.21l-.59.25c-.2,0-.25-.07-.31-.18s0,0-.12-.12a.84.84,0,0,1,.07-1.33.86.86,0,0,1,.29-.13c.23,0,.11-.08.29-.12Zm-4.76-.5a.3.3,0,0,1,.38.24c0,.19-.08.34-.22.36a.31.31,0,0,1-.16-.6Zm-4-1a.3.3,0,1,1,.13.58.3.3,0,0,1-.36-.22.43.43,0,0,1,.05-.25c.07-.13.08-.1.18-.11Zm4.29.1a.3.3,0,0,1,.08.6A.3.3,0,1,1,212.81,315.81Zm-4-1a.3.3,0,0,1,.31.26.31.31,0,0,1-.28.34.3.3,0,1,1,0-.6Zm-7.29,1.55,17.14,4.3c.28-1.08.55-2.16.82-3.24.34-1.36.39-1.12-1.81-1.67l-12.93-3.24c-2.22-.56-2.08-.73-2.4.58-.28,1.09-.56,2.18-.82,3.27Z"/><path class="cls-5" d="M213.38,337.11c.17.05.25.09.23.26a3.69,3.69,0,0,1-.11.45c-.36,1.47-.23,1.32-.86,1.16l-1.8-.45c-.41-.1-.59,0-.47-.49s.15-.61.23-.91c.12-.49.09-.69.41-.61l2.37.6Zm-15.93-4.51c-.21.82-.41,1.63-.62,2.44-.11.46,0,.66.42.78s.81.21,1.22.3l.21-.28,13.3,3.34a1.67,1.67,0,0,1,0,.34l1.23.31c.46.11.62,0,.73-.49l.61-2.44-17.14-4.3Z"/><path class="cls-5" d="M208.72,322a4.8,4.8,0,1,1-5.45,4.06,4.8,4.8,0,0,1,5.45-4.06Zm5,2.82a4.16,4.16,0,0,0-.6-1.29l-.41-.58a6,6,0,0,0-9.87,6.91l.4.59a6,6,0,0,0,3.26,2.14,5.93,5.93,0,0,0,5-.92,5.52,5.52,0,0,0,1.17-1.11c-.11-.08-.21-.19-.3-.27a6.39,6.39,0,0,0,1-2.11,5.82,5.82,0,0,0-.18-3.21l.47-.15Z"/><path class="cls-5" d="M201.36,317c.14.1,16.51,4.16,17.14,4.31l.13-.53-17.14-4.29Z"/><path class="cls-5" d="M202.71,315.68c.21.09,3,.77,3.55.9.24.06.34.16.4-.08.1-.4.45-1.7.49-2-.18-.1-.25,0-.34.1l-.27.24c-.13.08-.74-.12-.92-.16l-1.93-.49a3.94,3.94,0,0,1-.22-.55c-.05-.11,0-.1-.2-.12s-.54,2-.56,2.18Z"/><path class="cls-5" d="M212.27,328.29a4.51,4.51,0,1,1-2.71-5.77,4.52,4.52,0,0,1,2.71,5.77Zm.2-.07a4.68,4.68,0,1,0-5.9,3,4.68,4.68,0,0,0,5.9-3Z"/><path class="cls-5" d="M210.45,338.3c.2.09,1.56.4,2,.5l.67.14a8.4,8.4,0,0,0,.39-1.65l-.61-.18c-.39-.1-1.78-.48-2-.48a11.33,11.33,0,0,0-.42,1.67Z"/><path class="cls-5" d="M212,316.1c-.05-.1-.17-.1-.38-.15l-2-.49c-.13,0-.28.87-.35,1.14s-.11.28,0,.34l1.63.41c.11,0,.68.22.77.15a6,6,0,0,0,.35-1.4Z"/><path class="cls-5" d="M213.39,325a8.87,8.87,0,0,1,.28,1.23,5.56,5.56,0,0,1-.44,2.87,8.71,8.71,0,0,1-.68,1.13,3.41,3.41,0,0,0,.47.46,9.51,9.51,0,0,0,.78-1.27,6,6,0,0,0,.5-1.67,6.13,6.13,0,0,0-.29-2.91c-.2,0-.42.14-.62.16Z"/><path class="cls-5" d="M203.77,314.07l2.54.63c.18.05.17,0,.27-.09a1.34,1.34,0,0,0,.25-.23l-3.24-.81a3,3,0,0,0,.18.5Z"/><path class="cls-5" d="M214.59,318.17a8.08,8.08,0,0,0,.31-1.27.68.68,0,0,0-.15,0,.7.7,0,0,0-.16,1.23Z"/><path class="cls-5" d="M216.78,318.73l.32-1.29a.7.7,0,0,0-.6.53.68.68,0,0,0,.28.76Z"/><path class="cls-5" d="M217.26,318.83a.69.69,0,0,0,.32-1.26Z"/><path class="cls-5" d="M215.07,318.29a.69.69,0,0,0,.46-1.14l-.13-.13Z"/><polygon class="cls-5" points="215.98 319.74 216.86 319.96 216.95 319.57 216.07 319.36 215.98 319.74"/><polygon class="cls-5" points="217.22 320.06 218.1 320.27 218.2 319.89 217.33 319.67 217.22 320.06"/></g><path class="cls-1" d="M78.31,296.51s93.77,11.25,112.52,30,108.78,35.63,91-15.95-68.45-118.14-22.5-128.46S348.37-22.31,160.83,12.39-7.22,115,11.35,126.61s104.47,43.31,37.89,71.44S24.86,301.2,78.31,296.51Z"/><path class="cls-7" d="M194.11,142.05s-2.55,11.9-2.36,20.45S178.83,178.26,171,175.14s1.25,8,1.25,8,7.91,8.81,2.16,10.67-73,20.47-73,20.47-13.28-2-10.26-22.94c0,0,0-7,12.88-11.67s6.24-27.17,6.24-27.17.4-17.71,11.67-25.75c0,0,14.34-33.13,43.49-28.54s28.65,43.84,28.65,43.84Z"/><path class="cls-8" d="M87,238.41l14.69-33s4.5-14.68,29.38-19.18l13.14-1.77,17.55,1.69,12.36,5.68s14.65,3.69,20,15.65,18.31,50.61,18.31,50.61L191,298.29s-22.06,24.15-48.44,14.61-26.68-10.43-26.68-10.43,5.51-61,1.64-69.9L110.79,247,87,238.41Z"/><polygon class="cls-9" points="127.82 221.63 184.81 220.24 184.81 226.02 127.82 227.42 127.82 221.63"/><path class="cls-10" d="M145.88,164.76l-2,21.81s5.29,9.12,15.09,3.84l-.51-17.56-12.53-8.09Z"/><path class="cls-11" d="M145.59,167.81l-.77,8.21s3.39,8.31,13.87,6.56l0-10.77-13.13-4Z"/><rect class="cls-12" x="152.43" y="239.83" width="69.48" height="65.57"/><polygon class="cls-13" points="133.35 225.15 152.43 239.68 152.43 305.25 133.35 290.72 133.35 225.15"/><polygon class="cls-13" points="133.35 225.15 196.71 225.15 221.97 239.73 152.43 239.73 133.35 225.15"/><g class="cls-14"><rect class="cls-15" x="133.35" y="225.15" width="63.38" height="35.63"/></g><polygon class="cls-16" points="133.35 225.15 196.71 225.15 221.97 239.73 152.43 239.73 133.35 225.15"/><polygon class="cls-17" points="133.34 225.2 152.92 240.26 142.72 257.93 124.05 240.01 133.34 225.2"/><polygon class="cls-13" points="221.97 239.73 232.44 257.69 221.91 257.69 221.97 239.73"/><path class="cls-10" d="M172,120c11.76,2,18.33,16.59,14.66,32.49s-16.17,27.14-27.94,25.1-18.33-16.59-14.66-32.5S160.25,117.93,172,120Z"/><g class="cls-18"><ellipse class="cls-19" cx="183.66" cy="157.83" rx="0.95" ry="3.91" transform="translate(3.64 319.79) rotate(-82.65)"/></g><path class="cls-1" d="M172,120c11.76,2,18.33,16.59,14.66,32.49s-16.17,27.14-27.94,25.1-18.33-16.59-14.66-32.5S160.25,117.93,172,120Z"/><path class="cls-10" d="M91.44,240l-4.73,24.7s-.21.94,1.37,1.57,38.64,24,38.64,24,5.1,3.8,6.88,7.36,2.13,4.27,4.62,4.39,11.28.12,11.28.12a4.72,4.72,0,0,0-2.05-2.36c-1.38-.63-7.36-3.7-7.63-6.33,0,0,3.44,2.72,5.13,2.67s1.47-2.32-1.25-5a47.4,47.4,0,0,0-7.8-5.84c-.94-.49-2.59-1-4.06-1.74s-27.77-25.12-27.77-25.12l2.87-12.82L91.44,240Z"/><g class="cls-20"><path id="_1_0" data-name=" 1 0" class="cls-21" d="M101.12,238.94s-1.06,17.64.15,19.9,13.33,10.61,13.33,10.61l22.51,20.12-36-50.63Z"/></g><path class="cls-1" d="M91.44,240l-4.73,24.7s-.21.94,1.37,1.57,38.64,24,38.64,24,5.1,3.8,6.88,7.36,2.13,4.27,4.62,4.39,11.28.12,11.28.12a4.72,4.72,0,0,0-2.05-2.36c-1.38-.63-7.36-3.7-7.63-6.33,0,0,3.44,2.72,5.13,2.67s1.47-2.32-1.25-5a47.4,47.4,0,0,0-7.8-5.84c-.94-.49-2.59-1-4.06-1.74s-27.77-25.12-27.77-25.12l2.87-12.82L91.44,240Z"/><path class="cls-7" d="M141.53,158.44s8.23-.2,11.34-15.65c0,0,3.41-11,18.56-20.17,0,0,7.23,18.37,15.55,22.18s9.74,2.81,9.74,2.81,12.46-32-8-38.29c0,0-10.48-18.32-42.88-7.95a55.09,55.09,0,0,0-17.61,17.55S101.3,158.88,141.53,158.44Z"/><path class="cls-10" d="M140.55,149.48s-6.47-12.16.83-15C141.38,134.47,149.07,132.93,140.55,149.48Z"/><path class="cls-10" d="M213.62,262.49s7.5-7,10.78-3.16c0,0,1.61,2.48-1.11,3.59,0,0,3.22,2.29-.44,4.09,0,0,3.78,2.48-.12,4.71,0,0,3.1,4.83-1.73,4.46s-9.79-2.67-8.31-4,1.68-1.11,1.68-1.11-2.05-2,.31-2.91c0,0-.81-3.35.93-3.35,0,0-3.1-.18-2-2.35Z"/><path class="cls-22" d="M173,153.94a.12.12,0,0,1,.12-.14.12.12,0,0,1,.14.11Zm-5.49,10.23.13-.23.63.33.57.23.53.13.48,0,.43,0,.39-.11.35-.18.32-.24.29-.3.26-.35.23-.4.2-.45.18-.48.15-.51.12-.54.11-.56.08-.57.07-.58,0-.58,0-.58,0-.56v-1.56l0-.45,0-.42,0-.36,0-.32,0-.25,0-.19v-.16l.26,0v.35l0,.25,0,.32,0,.37,0,.42v2l0,.57,0,.58-.05.58-.07.59-.08.58-.11.57-.13.55-.15.53-.18.5-.21.47-.25.43-.28.38-.31.32-.36.27-.4.2-.44.12-.48,0-.52-.05-.56-.14-.6-.24-.65-.34Zm0,0a.13.13,0,1,1,.13-.23l-.13.23Z"/><ellipse class="cls-19" cx="158.44" cy="149.49" rx="0.95" ry="3.91" transform="translate(-48.93 216.18) rotate(-61.16)"/><line class="cls-23" x1="117.42" y1="232.69" x2="123.05" y2="220.23"/><path class="cls-23" d="M131.33,184.54s7.62,18.23,33.32,10.16"/><rect class="cls-24" x="152.43" y="239.68" width="16.2" height="65.71"/><path class="cls-25" d="M213.57,213.6a10.68,10.68,0,0,0-9.16,16.17,5.49,5.49,0,0,1-3,4.28s3.88.42,6.41-.79a10.68,10.68,0,1,0,5.77-19.66Z"/><path class="cls-26" d="M213.81,218.83a3.2,3.2,0,0,1,3,1.73,7.77,7.77,0,0,1,.72,3.66,8.8,8.8,0,0,1-.65,3.65,3.22,3.22,0,0,1-3.11,2.07,3.11,3.11,0,0,1-2.9-1.69,7.74,7.74,0,0,1-.79-3.79,9.37,9.37,0,0,1,.47-3.17,3.26,3.26,0,0,1,3.22-2.46Zm0,9.87a1.94,1.94,0,0,0,1.69-.93,6.9,6.9,0,0,0,.62-3.49,8.64,8.64,0,0,0-.45-3,1.72,1.72,0,0,0-1.76-1.19,1.84,1.84,0,0,0-1.76,1.12,7.83,7.83,0,0,0-.55,3.33,8.4,8.4,0,0,0,.35,2.66,1.94,1.94,0,0,0,1.86,1.53Z"/><path id="_1_1" data-name=" 1 1" class="cls-27" d="M213.81,218.83a3.2,3.2,0,0,1,3,1.73,7.77,7.77,0,0,1,.72,3.66,8.8,8.8,0,0,1-.65,3.65,3.22,3.22,0,0,1-3.11,2.07,3.11,3.11,0,0,1-2.9-1.69,7.74,7.74,0,0,1-.79-3.79,9.37,9.37,0,0,1,.47-3.17,3.26,3.26,0,0,1,3.22-2.46Zm0,9.87a1.94,1.94,0,0,0,1.69-.93,6.9,6.9,0,0,0,.62-3.49,8.64,8.64,0,0,0-.45-3,1.72,1.72,0,0,0-1.76-1.19,1.84,1.84,0,0,0-1.76,1.12,7.83,7.83,0,0,0-.55,3.33,8.4,8.4,0,0,0,.35,2.66,1.94,1.94,0,0,0,1.86,1.53Z"/></g></g></svg>